<svg width="223" height="26" viewBox="0 0 223 26" fill="none" xmlns="http://www.w3.org/2000/svg">
<path d="M2.53113 24.375C2.23946 24.1875 2.01029 23.9479 1.84363 23.6562C1.65613 23.3646 1.51029 23.0521 1.40613 22.7188C1.28113 22.3854 1.18738 22.0417 1.12488 21.6875C1.04154 21.3125 0.958211 20.9583 0.874878 20.625C0.874878 20.3333 0.937378 20.125 1.06238 20C1.18738 19.8542 1.32279 19.7188 1.46863 19.5938C1.96863 19.5729 2.41654 19.5312 2.81238 19.4688C3.20821 19.4062 3.59363 19.3438 3.96863 19.2812C4.34363 19.2188 4.71863 19.1667 5.09363 19.125C5.46863 19.0625 5.87488 19.0312 6.31238 19.0312C6.62488 18.3854 6.91654 17.7708 7.18738 17.1875C7.45821 16.5833 7.71863 16.0104 7.96863 15.4688C8.09363 14.9479 8.24988 14.4688 8.43738 14.0312C8.64571 13.5729 8.84363 13.1458 9.03113 12.75C9.21863 12.3333 9.38529 11.9271 9.53113 11.5312C9.67696 11.1146 9.77071 10.6771 9.81238 10.2188C10.0624 9.48958 10.2811 8.82292 10.4686 8.21875C10.677 7.59375 10.8332 6.85417 10.9374 6C10.1457 6.125 9.51029 6.25 9.03113 6.375C8.55196 6.47917 8.20821 6.58333 7.99988 6.6875C7.58321 6.66667 7.24988 6.58333 6.99988 6.4375C6.77071 6.29167 6.58321 6.11458 6.43738 5.90625C6.29154 5.69792 6.16654 5.45833 6.06238 5.1875C5.95821 4.91667 5.83321 4.63542 5.68738 4.34375C5.77071 4.15625 5.79154 3.88542 5.74988 3.53125C5.70821 3.15625 5.58321 2.88542 5.37488 2.71875C5.54154 2.67708 5.66654 2.54167 5.74988 2.3125C5.83321 2.0625 5.84363 1.875 5.78113 1.75C6.13529 1.64583 6.51029 1.58333 6.90613 1.5625C7.30196 1.52083 7.68738 1.48958 8.06238 1.46875C8.45821 1.42708 8.83321 1.38542 9.18738 1.34375C9.54154 1.28125 9.84363 1.16667 10.0936 1C11.177 0.958333 12.302 0.916667 13.4686 0.875C14.6561 0.833333 15.7499 0.78125 16.7499 0.71875C17.1249 0.84375 17.552 0.90625 18.0311 0.90625C18.5311 0.90625 19.0207 0.9375 19.4999 1C19.9999 1.0625 20.4374 1.19792 20.8124 1.40625C21.2082 1.61458 21.479 1.97917 21.6249 2.5C21.9374 2.54167 22.1665 2.625 22.3124 2.75C22.479 2.875 22.5832 3.03125 22.6249 3.21875C22.6665 3.38542 22.677 3.58333 22.6561 3.8125C22.6561 4.02083 22.6561 4.22917 22.6561 4.4375C22.3228 4.6875 21.8957 4.89583 21.3749 5.0625C20.8749 5.20833 20.3228 5.33333 19.7186 5.4375C19.1145 5.52083 18.479 5.58333 17.8124 5.625C17.1665 5.64583 16.5311 5.66667 15.9061 5.6875C15.802 6.375 15.6145 7.1875 15.3436 8.125C15.0936 9.04167 14.8332 9.94792 14.5624 10.8438C14.2915 11.7188 14.052 12.5104 13.8436 13.2188C13.6561 13.9062 13.5728 14.3542 13.5936 14.5625C13.3853 15.0417 13.2082 15.4479 13.0624 15.7812C12.9374 16.1146 12.8124 16.4271 12.6874 16.7188C12.5832 17.0104 12.4686 17.3021 12.3436 17.5938C12.2395 17.8646 12.104 18.1771 11.9374 18.5312H14.0624C14.104 18.7604 14.1978 18.9167 14.3436 19C14.4895 19.0833 14.6457 19.1562 14.8124 19.2188C14.979 19.2812 15.1249 19.3646 15.2499 19.4688C15.3957 19.5521 15.4686 19.6979 15.4686 19.9062C15.8645 20.0104 16.1145 20.1667 16.2186 20.375C16.3228 20.5833 16.3436 20.8125 16.2811 21.0625C16.2395 21.2917 16.1353 21.5312 15.9686 21.7812C15.8228 22.0312 15.677 22.25 15.5311 22.4375C15.3436 22.3958 15.1665 22.4479 14.9999 22.5938C14.8332 22.7188 14.677 22.8646 14.5311 23.0312C13.927 22.9479 13.3332 22.9375 12.7499 23C12.1665 23.0625 11.6249 23.1146 11.1249 23.1562C11.0207 23.1771 10.979 23.2396 10.9999 23.3438C11.0207 23.4271 10.9999 23.4896 10.9374 23.5312C10.2915 23.3229 9.62488 23.2396 8.93738 23.2812C8.27071 23.3229 7.58321 23.4271 6.87488 23.5938C6.18738 23.7396 5.47904 23.8958 4.74988 24.0625C4.02071 24.25 3.28113 24.3542 2.53113 24.375ZM24.9061 18.3125C24.7186 18.3542 24.5832 18.4688 24.4999 18.6562C24.4165 18.8229 24.3332 19 24.2499 19.1875C24.1874 19.375 24.1145 19.5521 24.0311 19.7188C23.9686 19.8646 23.8645 19.9375 23.7186 19.9375C23.6978 20.1042 23.6353 20.25 23.5311 20.375C23.4478 20.5 23.3645 20.6354 23.2811 20.7812C23.1978 20.9062 23.1353 21.0521 23.0936 21.2188C23.052 21.3646 23.0728 21.5417 23.1561 21.75C22.9895 21.875 22.8853 22.0521 22.8436 22.2812C22.802 22.5104 22.7499 22.7292 22.6874 22.9375C22.6457 23.1458 22.5624 23.3229 22.4374 23.4688C22.3124 23.6146 22.0832 23.6771 21.7499 23.6562C21.6874 23.7396 21.677 23.7917 21.7186 23.8125C21.7603 23.8333 21.7915 23.9062 21.8124 24.0312C21.5832 23.9896 21.4061 24 21.2811 24.0625C21.177 24.1458 21.0415 24.1979 20.8749 24.2188C20.479 24.0938 20.1457 23.875 19.8749 23.5625C19.6249 23.25 19.3957 22.9062 19.1874 22.5312C18.9999 22.1354 18.8228 21.7396 18.6561 21.3438C18.5103 20.9479 18.3645 20.6042 18.2186 20.3125C18.2811 20.0833 18.2915 19.8646 18.2499 19.6562C18.2082 19.4271 18.1353 19.2396 18.0311 19.0938C19.052 16.9271 20.1665 14.6146 21.3749 12.1562C22.5832 9.69792 23.729 7.27083 24.8124 4.875C25.2915 5.0625 25.7603 5.28125 26.2186 5.53125C26.6978 5.76042 27.1249 6.03125 27.4999 6.34375C27.8957 6.65625 28.229 7.02083 28.4999 7.4375C28.7707 7.83333 28.9478 8.28125 29.0311 8.78125C28.9895 8.90625 28.9374 8.95833 28.8749 8.9375C28.8332 8.89583 28.7915 8.90625 28.7499 8.96875C28.8332 9.07292 28.8749 9.14583 28.8749 9.1875C28.8957 9.22917 28.8957 9.27083 28.8749 9.3125C28.8749 9.35417 28.8749 9.41667 28.8749 9.5C28.8749 9.5625 28.9061 9.65625 28.9686 9.78125C28.8853 9.76042 28.8228 9.77083 28.7811 9.8125C28.7603 9.85417 28.6978 9.85417 28.5936 9.8125C28.677 10.0417 28.6978 10.2292 28.6561 10.375C28.6353 10.5208 28.5936 10.6562 28.5311 10.7812C28.4686 10.8854 28.4165 11.0104 28.3749 11.1562C28.3332 11.2812 28.3436 11.4479 28.4061 11.6562C28.3436 11.6562 28.2915 11.6771 28.2499 11.7188C28.229 11.7396 28.2082 11.7708 28.1874 11.8125C28.1665 11.8333 28.1353 11.8646 28.0936 11.9062C28.0728 11.9271 28.0311 11.9271 27.9686 11.9062C28.0311 12.3646 28.052 12.8229 28.0311 13.2812C28.0103 13.7396 27.9895 14.2083 27.9686 14.6875C27.9686 15.1458 27.979 15.6354 27.9999 16.1562C28.0207 16.6562 28.0936 17.1771 28.2186 17.7188C28.9686 17.2812 29.5624 16.7188 29.9999 16.0312C30.4582 15.3438 30.8228 14.5729 31.0936 13.7188C31.3853 12.8646 31.604 11.9479 31.7499 10.9688C31.8957 9.98958 32.052 8.98958 32.2186 7.96875C32.4061 7.78125 32.552 7.55208 32.6561 7.28125C32.7603 7.01042 32.854 6.72917 32.9374 6.4375C33.0207 6.125 33.104 5.82292 33.1874 5.53125C33.2707 5.21875 33.3749 4.9375 33.4999 4.6875C33.8124 4.72917 34.0728 4.83333 34.2811 5C34.5103 5.14583 34.7186 5.3125 34.9061 5.5C35.0936 5.66667 35.2915 5.83333 35.4999 6C35.7082 6.14583 35.9686 6.23958 36.2811 6.28125C36.5311 6.63542 36.7603 6.97917 36.9686 7.3125C37.177 7.64583 37.3124 8 37.3749 8.375C37.2707 8.54167 37.1874 8.72917 37.1249 8.9375C37.0832 9.14583 37.0311 9.35417 36.9686 9.5625C36.9061 9.77083 36.8228 9.96875 36.7186 10.1562C36.6145 10.3229 36.4686 10.4688 36.2811 10.5938C36.2186 11.1354 36.1353 11.6354 36.0311 12.0938C35.9478 12.5312 35.854 12.9688 35.7499 13.4062C35.6665 13.8438 35.5936 14.3021 35.5311 14.7812C35.4686 15.2396 35.4478 15.75 35.4686 16.3125C35.302 16.7917 35.1249 17.3021 34.9374 17.8438C34.7499 18.3854 34.604 18.875 34.4999 19.3125C34.1665 19.5833 33.9061 19.9062 33.7186 20.2812C33.5311 20.6562 33.3332 21.0312 33.1249 21.4062C33.0415 21.4896 32.9895 21.5104 32.9686 21.4688C32.9478 21.4271 32.8749 21.3958 32.7499 21.375C32.7707 21.4583 32.7707 21.5208 32.7499 21.5625C32.729 21.6042 32.6978 21.6458 32.6561 21.6875C32.6353 21.7083 32.6145 21.75 32.5936 21.8125C32.5936 21.875 32.6145 21.9583 32.6561 22.0625C32.3645 22.1875 32.104 22.3646 31.8749 22.5938C31.6457 22.8229 31.3957 23.0312 31.1249 23.2188C30.8749 23.4062 30.5624 23.5312 30.1874 23.5938C29.8332 23.6562 29.3645 23.5833 28.7811 23.375C27.927 22.75 27.1665 22.0312 26.4999 21.2188C25.854 20.4062 25.3228 19.4375 24.9061 18.3125ZM46.9686 18.5C46.9478 18.7917 46.8749 19.0729 46.7499 19.3438C46.6457 19.5938 46.5103 19.8438 46.3436 20.0938C46.177 20.3229 45.9895 20.5521 45.7811 20.7812C45.5936 20.9896 45.4061 21.1771 45.2186 21.3438C45.2811 21.6146 45.2811 21.8229 45.2186 21.9688C45.177 22.0938 45.1665 22.2917 45.1874 22.5625C44.8749 23.3958 44.3957 23.9479 43.7499 24.2188C43.1249 24.5104 42.5311 24.4583 41.9686 24.0625C41.7395 23.8958 41.5415 23.6875 41.3749 23.4375C41.229 23.1667 41.0207 23 40.7499 22.9375C40.8124 22.5833 40.7811 22.2292 40.6561 21.875C40.5311 21.5208 40.3957 21.3333 40.2499 21.3125C40.1874 20.875 40.0936 20.4062 39.9686 19.9062C39.8436 19.4062 39.729 18.9062 39.6249 18.4062C39.5207 17.8854 39.427 17.3854 39.3436 16.9062C39.2811 16.4062 39.2603 15.9479 39.2811 15.5312C39.302 15.3229 39.2603 15.1354 39.1561 14.9688C39.0728 14.8021 39.0103 14.6042 38.9686 14.375C38.8853 13.8958 38.854 13.3958 38.8749 12.875C38.9165 12.3333 38.9374 11.8229 38.9374 11.3438C38.9374 10.8854 38.9061 10.3958 38.8436 9.875C38.802 9.33333 38.7603 8.82292 38.7186 8.34375C38.677 7.84375 38.6561 7.39583 38.6561 7C38.6561 6.58333 38.7082 6.26042 38.8124 6.03125C38.9374 5.78125 39.104 5.58333 39.3124 5.4375C39.5415 5.27083 39.7499 5.09375 39.9374 4.90625C40.3957 4.94792 40.7603 5.13542 41.0311 5.46875C41.302 5.80208 41.4061 6.11458 41.3436 6.40625C41.7811 6.67708 42.1249 7.03125 42.3749 7.46875C42.6457 7.88542 42.854 8.36458 42.9999 8.90625C43.1665 9.42708 43.2811 9.98958 43.3436 10.5938C43.4061 11.1771 43.4582 11.7604 43.4999 12.3438C43.5415 12.9062 43.5832 13.4479 43.6249 13.9688C43.6665 14.4896 43.7499 14.9375 43.8749 15.3125C44.6457 14.2083 45.2915 13.2292 45.8124 12.375C46.3332 11.5 46.8645 10.6667 47.4061 9.875C47.9478 9.08333 48.552 8.28125 49.2186 7.46875C49.8853 6.65625 50.7499 5.73958 51.8124 4.71875C52.0207 4.73958 52.1874 4.78125 52.3124 4.84375C52.4582 4.90625 52.5832 4.95833 52.6874 5C52.7915 5.04167 52.9165 5.08333 53.0624 5.125C53.2082 5.14583 53.4061 5.13542 53.6561 5.09375C53.7395 5.30208 53.802 5.45833 53.8436 5.5625C53.8853 5.64583 53.9165 5.73958 53.9374 5.84375C53.979 5.92708 54.0207 6.04167 54.0624 6.1875C54.1249 6.33333 54.2186 6.54167 54.3436 6.8125C54.4061 6.875 54.427 6.95833 54.4061 7.0625C54.3853 7.16667 54.3645 7.27083 54.3436 7.375C54.3436 7.45833 54.3436 7.52083 54.3436 7.5625C54.3436 7.60417 54.3957 7.60417 54.4999 7.5625C54.4374 7.85417 54.3228 8.125 54.1561 8.375C54.0103 8.60417 53.9478 8.88542 53.9686 9.21875C53.4895 9.84375 52.9582 10.4896 52.3749 11.1562C51.8124 11.8229 51.2395 12.5104 50.6561 13.2188C50.0936 13.9271 49.552 14.6771 49.0311 15.4688C48.5103 16.2396 48.0624 17.0521 47.6874 17.9062C47.5832 17.9062 47.4999 17.9375 47.4374 18C47.3957 18.0625 47.354 18.1354 47.3124 18.2188C47.2707 18.2812 47.2186 18.3438 47.1561 18.4062C47.1145 18.4688 47.052 18.5 46.9686 18.5ZM69.5311 6.40625C69.552 6.55208 69.552 6.66667 69.5311 6.75C69.5311 6.8125 69.5207 6.875 69.4999 6.9375C69.4999 7 69.4999 7.07292 69.4999 7.15625C69.4999 7.21875 69.5207 7.32292 69.5624 7.46875C69.1249 8.17708 68.6145 8.66667 68.0311 8.9375C67.4686 9.1875 66.854 9.375 66.1874 9.5C65.5207 9.60417 64.8332 9.71875 64.1249 9.84375C63.4374 9.96875 62.7499 10.2396 62.0624 10.6562C61.7915 10.5521 61.5415 10.5521 61.3124 10.6562C61.104 10.7604 60.7915 10.7917 60.3749 10.75C60.2499 10.875 60.0936 10.9688 59.9061 11.0312C59.7186 11.0729 59.5311 11.125 59.3436 11.1875C59.427 11.375 59.4582 11.5729 59.4374 11.7812C59.4374 11.9688 59.4686 12.125 59.5311 12.25C60.2603 12.3125 61.0624 12.3021 61.9374 12.2188C62.8332 12.1354 63.7082 12.0833 64.5624 12.0625C64.5832 12.1667 64.5728 12.2396 64.5311 12.2812C64.4895 12.3021 64.479 12.3542 64.4999 12.4375C64.6457 12.5417 64.7915 12.6771 64.9374 12.8438C65.0832 12.9896 65.229 13.1354 65.3749 13.2812C65.5207 13.4271 65.6665 13.5521 65.8124 13.6562C65.979 13.7396 66.1665 13.7708 66.3749 13.75C66.4582 13.9167 66.5103 14.1042 66.5311 14.3125C66.5728 14.5 66.552 14.6979 66.4686 14.9062C66.1353 15.1354 65.802 15.375 65.4686 15.625C65.1353 15.8542 64.7811 16.0625 64.4061 16.25C64.052 16.4375 63.6665 16.5938 63.2499 16.7188C62.854 16.8229 62.4061 16.8646 61.9061 16.8438C61.802 16.8438 61.7186 16.8438 61.6561 16.8438C61.6145 16.8438 61.552 16.8125 61.4686 16.75C61.302 16.8542 61.0624 16.8854 60.7499 16.8438C60.4582 16.8021 60.229 16.8333 60.0624 16.9375C59.8332 16.8333 59.552 16.7917 59.2186 16.8125C58.9061 16.8125 58.6249 16.7708 58.3749 16.6875C58.0415 17.125 57.7395 17.5938 57.4686 18.0938C57.1978 18.5938 56.9582 19.125 56.7499 19.6875C57.4582 19.7917 58.0415 19.8333 58.4999 19.8125C58.979 19.7917 59.427 19.7604 59.8436 19.7188C60.2603 19.6562 60.6874 19.6042 61.1249 19.5625C61.5624 19.5 62.1145 19.4792 62.7811 19.5C63.1978 19.2708 63.6874 19.125 64.2499 19.0625C64.8332 18.9792 65.3645 18.8542 65.8436 18.6875C66.0103 18.75 66.1561 18.8646 66.2811 19.0312C66.4061 19.1771 66.5207 19.3229 66.6249 19.4688C66.7499 19.5938 66.8749 19.7083 66.9999 19.8125C67.1249 19.9167 67.2811 19.9583 67.4686 19.9375C67.552 20.0208 67.604 20.125 67.6249 20.25C67.6665 20.3542 67.6978 20.4583 67.7186 20.5625C67.7395 20.6667 67.7707 20.7604 67.8124 20.8438C67.8749 20.9062 67.9686 20.9271 68.0936 20.9062C67.7811 21.5938 67.4165 22.125 66.9999 22.5C66.604 22.8542 66.1457 23.125 65.6249 23.3125C65.104 23.5 64.5207 23.6458 63.8749 23.75C63.2499 23.8542 62.552 23.9792 61.7811 24.125C61.5936 24.1667 61.4374 24.1562 61.3124 24.0938C61.1874 24.0521 61.0415 24.0312 60.8749 24.0312C60.3957 24.1354 59.8228 24.2292 59.1561 24.3125C58.4895 24.3958 57.8124 24.4271 57.1249 24.4062C56.4374 24.3854 55.7811 24.2917 55.1561 24.125C54.5311 23.9792 54.0207 23.7083 53.6249 23.3125C53.4582 23.1667 53.3436 23 53.2811 22.8125C53.2395 22.6042 53.104 22.4479 52.8749 22.3438C52.854 22.0729 52.8124 21.7708 52.7499 21.4375C52.6874 21.1042 52.6249 20.7604 52.5624 20.4062C52.4999 20.0312 52.4478 19.6667 52.4061 19.3125C52.3853 18.9583 52.4061 18.6354 52.4686 18.3438C52.5311 18.0312 52.6561 17.75 52.8436 17.5C53.052 17.25 53.1249 16.9792 53.0624 16.6875C53.1665 16.6667 53.229 16.6146 53.2499 16.5312C53.2707 16.4271 53.354 16.3854 53.4999 16.4062C53.6249 16.0312 53.7603 15.6771 53.9061 15.3438C54.052 15.0104 54.1978 14.6875 54.3436 14.375C54.5103 14.0625 54.6665 13.75 54.8124 13.4375C54.979 13.1042 55.1353 12.7396 55.2811 12.3438C54.9895 12.0729 54.7707 11.7812 54.6249 11.4688C54.4999 11.1354 54.4061 10.8125 54.3436 10.5C54.2811 10.1667 54.229 9.83333 54.1874 9.5C54.1457 9.14583 54.0728 8.79167 53.9686 8.4375C54.177 8.125 54.427 7.875 54.7186 7.6875C55.0311 7.47917 55.3645 7.3125 55.7186 7.1875C56.0728 7.0625 56.4582 6.95833 56.8749 6.875C57.2915 6.79167 57.729 6.69792 58.1874 6.59375C59.0207 6.32292 59.7603 6.11458 60.4061 5.96875C61.0728 5.82292 61.7186 5.70833 62.3436 5.625C62.9895 5.52083 63.6561 5.42708 64.3436 5.34375C65.0311 5.26042 65.8124 5.13542 66.6874 4.96875C66.8749 5.15625 67.052 5.25 67.2186 5.25C67.302 5.0625 67.3957 5.01042 67.4999 5.09375C67.6249 5.15625 67.677 5.09375 67.6561 4.90625C67.8645 5.26042 68.1249 5.5625 68.4374 5.8125C68.7707 6.04167 69.1353 6.23958 69.5311 6.40625ZM69.2811 9.9375C69.427 9.5 69.6561 9.125 69.9686 8.8125C70.302 8.5 70.6561 8.23958 71.0311 8.03125C71.427 7.80208 71.8332 7.61458 72.2499 7.46875C72.6665 7.32292 73.0624 7.19792 73.4374 7.09375C74.2707 6.73958 75.1561 6.40625 76.0936 6.09375C77.052 5.76042 78.0207 5.46875 78.9999 5.21875C79.9999 4.96875 81.0207 4.8125 82.0624 4.75C83.104 4.66667 84.1978 4.79167 85.3436 5.125C85.4061 5.33333 85.4999 5.53125 85.6249 5.71875C85.7499 5.90625 85.8749 6.09375 85.9999 6.28125C86.1457 6.46875 86.2707 6.65625 86.3749 6.84375C86.479 7.01042 86.5415 7.1875 86.5624 7.375C86.7707 7.5625 86.9374 7.77083 87.0624 8C87.1874 8.20833 87.2082 8.48958 87.1249 8.84375C86.9165 9.01042 86.7082 9.16667 86.4999 9.3125C86.3124 9.4375 86.104 9.55208 85.8749 9.65625C85.104 9.46875 84.3228 9.40625 83.5311 9.46875C82.7395 9.53125 82.0311 9.58333 81.4061 9.625C81.2186 9.4375 80.9895 9.34375 80.7186 9.34375C80.4686 9.34375 80.1978 9.38542 79.9061 9.46875C79.6353 9.55208 79.354 9.63542 79.0624 9.71875C78.7915 9.80208 78.5311 9.82292 78.2811 9.78125C78.0728 9.94792 77.8124 10.0625 77.4999 10.125C77.2082 10.1667 76.8853 10.2083 76.5311 10.25C76.5103 10.3542 76.5311 10.4271 76.5936 10.4688C76.6561 10.4896 76.6665 10.5521 76.6249 10.6562C76.7499 10.8021 76.9061 10.9062 77.0936 10.9688C77.302 11.0312 77.5103 11.0938 77.7186 11.1562C77.9478 11.2188 78.1457 11.3021 78.3124 11.4062C78.479 11.4896 78.5936 11.6354 78.6561 11.8438C78.9686 11.8438 79.2395 11.9167 79.4686 12.0625C79.6978 12.2083 79.8853 12.3854 80.0311 12.5938C80.177 12.8021 80.2811 13.0312 80.3436 13.2812C80.427 13.5104 80.4686 13.7188 80.4686 13.9062C80.5311 14.0729 80.604 14.1458 80.6874 14.125C80.7707 14.1042 80.8645 14.1458 80.9686 14.25C81.0311 14.5208 81.1874 14.8021 81.4374 15.0938C81.6874 15.3646 81.8853 15.6667 82.0311 16C82.0728 16.5208 82.104 16.9896 82.1249 17.4062C82.1457 17.8021 82.0728 18.2083 81.9061 18.625C81.5936 19.3958 81.1561 20.0833 80.5936 20.6875C80.052 21.2917 79.427 21.8333 78.7186 22.3125C78.0311 22.7708 77.2915 23.1667 76.4999 23.5C75.7082 23.8333 74.9374 24.1146 74.1874 24.3438C74.104 24.3229 74.0207 24.3229 73.9374 24.3438C73.854 24.3646 73.8332 24.3125 73.8749 24.1875C73.7082 24.3333 73.5207 24.4271 73.3124 24.4688C73.1249 24.5104 72.9165 24.5208 72.6874 24.5C72.4582 24.5 72.2186 24.4896 71.9686 24.4688C71.7395 24.4479 71.5207 24.4583 71.3124 24.5C71.1665 24.3542 71.0311 24.2083 70.9061 24.0625C70.802 23.9375 70.7186 23.7708 70.6561 23.5625C70.552 23.5625 70.4999 23.5104 70.4999 23.4062C70.5207 23.3021 70.4895 23.25 70.4061 23.25C70.5311 23.0417 70.5832 22.9271 70.5624 22.9062C70.5624 22.8646 70.5311 22.8333 70.4686 22.8125C70.427 22.7917 70.3853 22.7708 70.3436 22.75C70.302 22.7083 70.2915 22.6562 70.3124 22.5938C70.3957 22.4271 70.427 22.2396 70.4061 22.0312C70.3853 21.8021 70.3645 21.5729 70.3436 21.3438C70.3228 21.1146 70.3332 20.8958 70.3749 20.6875C70.4374 20.4792 70.5936 20.3125 70.8436 20.1875C71.552 20.2708 72.2186 20.25 72.8436 20.125C73.4895 19.9792 74.0936 19.7812 74.6561 19.5312C75.2186 19.2812 75.7499 19.0104 76.2499 18.7188C76.7707 18.4271 77.2811 18.1667 77.7811 17.9375C77.8436 17.75 77.927 17.5938 78.0311 17.4688C78.1561 17.3438 78.2811 17.2292 78.4061 17.125C78.5311 17.0208 78.6457 16.9062 78.7499 16.7812C78.854 16.6562 78.927 16.5 78.9686 16.3125C78.9895 16.1667 78.9478 16.0833 78.8436 16.0625C78.7603 16.0208 78.7186 15.9375 78.7186 15.8125L78.3749 15.7188C77.979 15.4896 77.5311 15.3021 77.0311 15.1562C76.5311 14.9896 76.104 14.8125 75.7499 14.625C75.5207 14.75 75.302 14.7812 75.0936 14.7188C74.9061 14.6562 74.6561 14.5938 74.3436 14.5312C73.6353 14.4896 72.9478 14.4167 72.2811 14.3125C71.6353 14.2083 71.0103 14.0208 70.4061 13.75C70.3645 13.6458 70.3124 13.5521 70.2499 13.4688C70.1874 13.3854 70.0728 13.3646 69.9061 13.4062C69.7811 13.2396 69.6561 13.0833 69.5311 12.9375C69.4061 12.7708 69.2915 12.5938 69.1874 12.4062C69.229 12.1562 69.2603 11.9479 69.2811 11.7812C69.302 11.5938 69.2395 11.4167 69.0936 11.25C69.177 10.9792 69.2395 10.7604 69.2811 10.5938C69.3228 10.4271 69.3228 10.2083 69.2811 9.9375ZM101.406 8.96875C100.885 8.96875 100.323 9.01042 99.7186 9.09375C99.1145 9.15625 98.5207 9.22917 97.9374 9.3125C97.5207 9.375 97.1145 9.42708 96.7186 9.46875C96.3436 9.51042 95.9999 9.54167 95.6874 9.5625C95.5415 10.0208 95.3957 10.4271 95.2499 10.7812C95.104 11.1354 94.9478 11.4792 94.7811 11.8125C94.6145 12.1667 94.4582 12.5312 94.3124 12.9062C94.1874 13.2604 94.0624 13.6458 93.9374 14.0625C93.729 14.3958 93.552 14.7083 93.4061 15C93.2811 15.2708 93.177 15.5833 93.0936 15.9375C92.8436 16.25 92.6561 16.5833 92.5311 16.9375C92.4061 17.2708 92.3124 17.5625 92.2499 17.8125L92.1249 18.1875C91.9999 18.3125 91.927 18.4167 91.9061 18.5C91.8853 18.5625 91.8332 18.625 91.7499 18.6875C91.729 18.9167 91.6561 19.1458 91.5311 19.375C91.4895 19.4792 91.4582 19.5833 91.4374 19.6875C91.4165 19.7708 91.4061 19.8333 91.4061 19.875C91.4061 20.0833 91.354 20.2188 91.2499 20.2812C91.2707 20.3854 91.2707 20.5 91.2499 20.625C91.229 20.7292 91.2082 20.8333 91.1874 20.9375C91.1249 21.1875 91.104 21.3854 91.1249 21.5312C91.1874 21.6146 91.2395 21.6875 91.2811 21.75C91.3436 21.8125 91.3853 21.8958 91.4061 22C91.5311 22.0833 91.6249 22.1354 91.6874 22.1562C91.7707 22.2188 91.8957 22.2917 92.0624 22.375L92.3436 22.6875C92.4478 23.2917 92.354 23.7708 92.0624 24.125C91.7499 24.5208 91.2186 24.7188 90.4686 24.7188H90.0936C89.9895 24.6146 89.927 24.5312 89.9061 24.4688C89.7395 24.4062 89.604 24.3542 89.4999 24.3125C89.3957 24.2708 89.302 24.1875 89.2186 24.0625C88.9478 23.9375 88.729 23.8333 88.5624 23.75L88.2811 23.5938C88.2811 23.3646 88.2811 23.2396 88.2811 23.2188C88.1353 23.0312 88.0207 22.8229 87.9374 22.5938C87.8749 22.3646 87.8228 22.1354 87.7811 21.9062C87.7395 21.7188 87.6874 21.5417 87.6249 21.375C87.5832 21.2083 87.5207 21.0625 87.4374 20.9375C87.3957 19.7292 87.5103 18.7083 87.7811 17.875C88.052 17.0417 88.3332 16.2396 88.6249 15.4688C88.7915 15.0521 88.9582 14.6354 89.1249 14.2188C89.2915 13.7812 89.4374 13.3333 89.5624 12.875L89.8436 12.5625C89.9895 12.2292 90.104 11.9583 90.1874 11.75C90.2915 11.5208 90.3957 11.2917 90.4999 11.0625C90.5624 10.9167 90.6145 10.7812 90.6561 10.6562C90.7186 10.5104 90.7707 10.3854 90.8124 10.2812C90.6874 10.2812 90.5728 10.2917 90.4686 10.3125C90.3645 10.3125 90.2603 10.3229 90.1561 10.3438C90.0311 10.3646 89.9165 10.3854 89.8124 10.4062C89.7082 10.4062 89.604 10.4062 89.4999 10.4062C89.354 10.4062 89.2499 10.3958 89.1874 10.375C88.9582 10.4792 88.7082 10.5312 88.4374 10.5312H88.1249C88.0624 10.5312 87.9999 10.5312 87.9374 10.5312C87.8957 10.5104 87.854 10.5 87.8124 10.5C87.604 10.5 87.4374 10.5312 87.3124 10.5938C87.0624 10.5938 86.8228 10.5938 86.5936 10.5938H86.2811C86.2395 10.5938 86.1874 10.6042 86.1249 10.625C86.0624 10.625 86.0103 10.625 85.9686 10.625C85.8228 10.625 85.6665 10.6146 85.4999 10.5938C85.3332 10.5521 85.1561 10.4792 84.9686 10.375C84.7186 10.0417 84.552 9.86458 84.4686 9.84375L84.1874 9.46875C84.1665 9.34375 84.1353 9.22917 84.0936 9.125C84.052 9 84.0103 8.86458 83.9686 8.71875C83.8853 8.51042 83.802 8.29167 83.7186 8.0625C83.6561 7.8125 83.6249 7.52083 83.6249 7.1875C83.6457 7.02083 83.6874 6.89583 83.7499 6.8125C83.8124 6.72917 83.8645 6.65625 83.9061 6.59375L83.9999 6.125L84.4061 6.15625H85.2811C85.9478 6.15625 86.6249 6.13542 87.3124 6.09375C87.9999 6.03125 88.7082 5.96875 89.4374 5.90625C89.854 5.86458 90.2707 5.82292 90.6874 5.78125C91.1249 5.73958 91.5728 5.69792 92.0311 5.65625C92.1145 5.46875 92.1978 5.29167 92.2811 5.125L92.5936 4.96875C92.9686 4.94792 93.229 5 93.3749 5.125C93.5415 5.22917 93.677 5.33333 93.7811 5.4375C94.2395 5.39583 94.6978 5.35417 95.1561 5.3125C95.6353 5.25 96.1145 5.17708 96.5936 5.09375C97.302 4.98958 98.0103 4.89583 98.7186 4.8125C99.4478 4.72917 100.146 4.6875 100.812 4.6875C101.104 4.6875 101.385 4.69792 101.656 4.71875C101.927 4.73958 102.177 4.77083 102.406 4.8125L102.719 5.03125C102.781 5.15625 102.864 5.27083 102.969 5.375C103.094 5.47917 103.219 5.58333 103.344 5.6875C103.594 5.91667 103.844 6.1875 104.094 6.5C104.344 6.8125 104.437 7.27083 104.375 7.875C104.208 8.125 104.083 8.27083 104 8.3125L103.719 8.6875L103.406 8.65625C103.281 8.65625 103.167 8.67708 103.062 8.71875C102.958 8.73958 102.854 8.77083 102.75 8.8125C102.667 8.85417 102.583 8.89583 102.5 8.9375C102.417 8.95833 102.323 8.97917 102.219 9C102.031 9 101.875 9 101.75 9C101.646 8.97917 101.531 8.96875 101.406 8.96875ZM111.281 22.9375C111.219 22.9583 111.177 22.9375 111.156 22.875C111.135 22.8125 111.125 22.75 111.125 22.6875C111.146 22.625 111.177 22.5729 111.219 22.5312C111.281 22.4896 111.354 22.4896 111.437 22.5312C111.167 22.1979 110.989 21.8958 110.906 21.625C110.844 21.3542 110.708 21.0208 110.5 20.625C110.562 20.5625 110.604 20.4792 110.625 20.375C110.646 20.25 110.677 20.1354 110.719 20.0312C110.739 19.9271 110.771 19.8542 110.812 19.8125C110.875 19.75 110.948 19.7604 111.031 19.8438C110.989 19.6146 110.989 19.4271 111.031 19.2812C111.073 19.1354 111.114 19 111.156 18.875C111.219 18.75 111.26 18.625 111.281 18.5C111.302 18.375 111.271 18.2292 111.187 18.0625C111.583 17.5208 111.844 16.9375 111.969 16.3125C112.094 15.6667 112.167 15.0833 112.187 14.5625C112.375 14.375 112.531 14.125 112.656 13.8125C112.802 13.5 112.906 13.1771 112.969 12.8438C113.031 12.5104 113.062 12.1875 113.062 11.875C113.062 11.5417 113.021 11.2812 112.937 11.0938C112.958 11.0104 113 10.9688 113.062 10.9688C113.146 10.9479 113.239 10.9479 113.344 10.9688C113.489 10.1354 113.583 9.20833 113.625 8.1875C113.687 7.16667 113.792 6.1875 113.937 5.25C114.104 4.29167 114.364 3.45833 114.719 2.75C115.073 2.02083 115.635 1.55208 116.406 1.34375C116.552 1.86458 116.739 2.32292 116.969 2.71875C117.219 3.11458 117.479 3.5 117.75 3.875C118.042 4.25 118.333 4.625 118.625 5C118.917 5.375 119.187 5.79167 119.437 6.25C119.417 6.72917 119.364 7.28125 119.281 7.90625C119.219 8.53125 119.125 9.16667 119 9.8125C118.896 10.4583 118.781 11.0833 118.656 11.6875C118.552 12.2917 118.448 12.8021 118.344 13.2188C118.364 13.3229 118.437 13.3958 118.562 13.4375C118.687 13.4583 118.708 13.5729 118.625 13.7812C119.229 13.6354 119.854 13.5 120.5 13.375C121.167 13.2292 121.812 13.0938 122.437 12.9688C123.083 12.8229 123.708 12.6562 124.312 12.4688C124.937 12.2812 125.521 12.0521 126.062 11.7812C126.187 10.7812 126.344 9.79167 126.531 8.8125C126.719 7.83333 126.739 6.84375 126.594 5.84375C126.719 5.73958 126.823 5.61458 126.906 5.46875C126.989 5.32292 127.114 5.22917 127.281 5.1875C127.156 4.70833 127.104 4.20833 127.125 3.6875C127.146 3.14583 127.229 2.64583 127.375 2.1875C127.542 1.72917 127.781 1.33333 128.094 1C128.406 0.645833 128.792 0.416667 129.25 0.3125C129.521 0.708333 129.76 1.13542 129.969 1.59375C130.177 2.05208 130.385 2.52083 130.594 3C130.802 3.45833 131.021 3.89583 131.25 4.3125C131.5 4.72917 131.812 5.08333 132.187 5.375C132.25 6.10417 132.302 6.85417 132.344 7.625C132.385 8.375 132.417 9.15625 132.437 9.96875C132.25 10.9062 132.031 11.8229 131.781 12.7188C131.552 13.5938 131.385 14.5312 131.281 15.5312C131.114 15.7188 130.979 15.9479 130.875 16.2188C130.771 16.4688 130.667 16.7292 130.562 17C130.479 17.25 130.375 17.5 130.25 17.75C130.125 18 129.969 18.2083 129.781 18.375C129.864 18.6667 129.875 18.9479 129.812 19.2188C129.771 19.4688 129.844 19.7708 130.031 20.125C130.073 20.7708 129.989 21.3125 129.781 21.75C129.594 22.1667 129.323 22.5312 128.969 22.8438C128.635 23.1354 128.239 23.375 127.781 23.5625C127.344 23.7292 126.906 23.8854 126.469 24.0312C126.26 23.9062 126.062 23.7812 125.875 23.6562C125.708 23.5104 125.5 23.4062 125.25 23.3438L125.406 23.0625C124.989 22.6458 124.625 22.2083 124.312 21.75C124.021 21.2708 123.885 20.7292 123.906 20.125C123.906 20.1042 123.927 19.9688 123.969 19.7188C124.01 19.4479 124.052 19.1667 124.094 18.875C124.156 18.5833 124.208 18.3125 124.25 18.0625C124.312 17.7917 124.344 17.6458 124.344 17.625C123.76 17.6875 123.156 17.8229 122.531 18.0312C121.906 18.2396 121.292 18.4792 120.687 18.75C120.104 19 119.552 19.2708 119.031 19.5625C118.531 19.8333 118.125 20.0625 117.812 20.25C117.812 20.3125 117.76 20.4896 117.656 20.7812C117.552 21.0729 117.427 21.3854 117.281 21.7188C117.135 22.0312 116.969 22.3125 116.781 22.5625C116.614 22.8125 116.437 22.9271 116.25 22.9062C116.292 23.0104 116.333 23.0938 116.375 23.1562C116.417 23.1979 116.417 23.2917 116.375 23.4375C116.021 23.5417 115.698 23.6771 115.406 23.8438C115.135 24.0104 114.854 24.1458 114.562 24.25C114.271 24.375 113.948 24.4271 113.594 24.4062C113.26 24.4062 112.854 24.2812 112.375 24.0312C112.375 23.8854 112.312 23.7604 112.187 23.6562C112.062 23.5312 111.927 23.4271 111.781 23.3438C111.656 23.2604 111.542 23.1875 111.437 23.125C111.333 23.0625 111.281 23 111.281 22.9375ZM150.5 6.40625C150.521 6.55208 150.521 6.66667 150.5 6.75C150.5 6.8125 150.489 6.875 150.469 6.9375C150.469 7 150.469 7.07292 150.469 7.15625C150.469 7.21875 150.489 7.32292 150.531 7.46875C150.094 8.17708 149.583 8.66667 149 8.9375C148.437 9.1875 147.823 9.375 147.156 9.5C146.489 9.60417 145.802 9.71875 145.094 9.84375C144.406 9.96875 143.719 10.2396 143.031 10.6562C142.76 10.5521 142.51 10.5521 142.281 10.6562C142.073 10.7604 141.76 10.7917 141.344 10.75C141.219 10.875 141.062 10.9688 140.875 11.0312C140.687 11.0729 140.5 11.125 140.312 11.1875C140.396 11.375 140.427 11.5729 140.406 11.7812C140.406 11.9688 140.437 12.125 140.5 12.25C141.229 12.3125 142.031 12.3021 142.906 12.2188C143.802 12.1354 144.677 12.0833 145.531 12.0625C145.552 12.1667 145.542 12.2396 145.5 12.2812C145.458 12.3021 145.448 12.3542 145.469 12.4375C145.614 12.5417 145.76 12.6771 145.906 12.8438C146.052 12.9896 146.198 13.1354 146.344 13.2812C146.489 13.4271 146.635 13.5521 146.781 13.6562C146.948 13.7396 147.135 13.7708 147.344 13.75C147.427 13.9167 147.479 14.1042 147.5 14.3125C147.542 14.5 147.521 14.6979 147.437 14.9062C147.104 15.1354 146.771 15.375 146.437 15.625C146.104 15.8542 145.75 16.0625 145.375 16.25C145.021 16.4375 144.635 16.5938 144.219 16.7188C143.823 16.8229 143.375 16.8646 142.875 16.8438C142.771 16.8438 142.687 16.8438 142.625 16.8438C142.583 16.8438 142.521 16.8125 142.437 16.75C142.271 16.8542 142.031 16.8854 141.719 16.8438C141.427 16.8021 141.198 16.8333 141.031 16.9375C140.802 16.8333 140.521 16.7917 140.187 16.8125C139.875 16.8125 139.594 16.7708 139.344 16.6875C139.01 17.125 138.708 17.5938 138.437 18.0938C138.167 18.5938 137.927 19.125 137.719 19.6875C138.427 19.7917 139.01 19.8333 139.469 19.8125C139.948 19.7917 140.396 19.7604 140.812 19.7188C141.229 19.6562 141.656 19.6042 142.094 19.5625C142.531 19.5 143.083 19.4792 143.75 19.5C144.167 19.2708 144.656 19.125 145.219 19.0625C145.802 18.9792 146.333 18.8542 146.812 18.6875C146.979 18.75 147.125 18.8646 147.25 19.0312C147.375 19.1771 147.489 19.3229 147.594 19.4688C147.719 19.5938 147.844 19.7083 147.969 19.8125C148.094 19.9167 148.25 19.9583 148.437 19.9375C148.521 20.0208 148.573 20.125 148.594 20.25C148.635 20.3542 148.667 20.4583 148.687 20.5625C148.708 20.6667 148.739 20.7604 148.781 20.8438C148.844 20.9062 148.937 20.9271 149.062 20.9062C148.75 21.5938 148.385 22.125 147.969 22.5C147.573 22.8542 147.114 23.125 146.594 23.3125C146.073 23.5 145.489 23.6458 144.844 23.75C144.219 23.8542 143.521 23.9792 142.75 24.125C142.562 24.1667 142.406 24.1562 142.281 24.0938C142.156 24.0521 142.01 24.0312 141.844 24.0312C141.364 24.1354 140.792 24.2292 140.125 24.3125C139.458 24.3958 138.781 24.4271 138.094 24.4062C137.406 24.3854 136.75 24.2917 136.125 24.125C135.5 23.9792 134.989 23.7083 134.594 23.3125C134.427 23.1667 134.312 23 134.25 22.8125C134.208 22.6042 134.073 22.4479 133.844 22.3438C133.823 22.0729 133.781 21.7708 133.719 21.4375C133.656 21.1042 133.594 20.7604 133.531 20.4062C133.469 20.0312 133.417 19.6667 133.375 19.3125C133.354 18.9583 133.375 18.6354 133.437 18.3438C133.5 18.0312 133.625 17.75 133.812 17.5C134.021 17.25 134.094 16.9792 134.031 16.6875C134.135 16.6667 134.198 16.6146 134.219 16.5312C134.239 16.4271 134.323 16.3854 134.469 16.4062C134.594 16.0312 134.729 15.6771 134.875 15.3438C135.021 15.0104 135.167 14.6875 135.312 14.375C135.479 14.0625 135.635 13.75 135.781 13.4375C135.948 13.1042 136.104 12.7396 136.25 12.3438C135.958 12.0729 135.739 11.7812 135.594 11.4688C135.469 11.1354 135.375 10.8125 135.312 10.5C135.25 10.1667 135.198 9.83333 135.156 9.5C135.114 9.14583 135.042 8.79167 134.937 8.4375C135.146 8.125 135.396 7.875 135.687 7.6875C136 7.47917 136.333 7.3125 136.687 7.1875C137.042 7.0625 137.427 6.95833 137.844 6.875C138.26 6.79167 138.698 6.69792 139.156 6.59375C139.989 6.32292 140.729 6.11458 141.375 5.96875C142.042 5.82292 142.687 5.70833 143.312 5.625C143.958 5.52083 144.625 5.42708 145.312 5.34375C146 5.26042 146.781 5.13542 147.656 4.96875C147.844 5.15625 148.021 5.25 148.187 5.25C148.271 5.0625 148.364 5.01042 148.469 5.09375C148.594 5.15625 148.646 5.09375 148.625 4.90625C148.833 5.26042 149.094 5.5625 149.406 5.8125C149.739 6.04167 150.104 6.23958 150.5 6.40625ZM154.469 20.75C154.239 21.5833 154.031 22.2188 153.844 22.6562C153.677 23.0729 153.417 23.5104 153.062 23.9688C152.792 23.9271 152.604 23.9583 152.5 24.0625C152.396 24.1667 152.281 24.2604 152.156 24.3438C151.969 24.3854 151.833 24.3854 151.75 24.3438C151.667 24.3021 151.594 24.25 151.531 24.1875C151.469 24.1458 151.385 24.0938 151.281 24.0312C151.198 23.9896 151.062 23.9688 150.875 23.9688C150.833 23.8021 150.781 23.6458 150.719 23.5C150.677 23.3542 150.542 23.3021 150.312 23.3438C150.354 23.1771 150.364 23.0417 150.344 22.9375C150.323 22.8125 150.292 22.7083 150.25 22.625C150.229 22.5208 150.208 22.4271 150.187 22.3438C150.167 22.2396 150.177 22.1146 150.219 21.9688C150.114 21.9688 150.031 21.8958 149.969 21.75C149.906 21.6042 149.833 21.4583 149.75 21.3125C149.812 20.9375 149.875 20.5833 149.937 20.25C150 19.9167 150.073 19.6042 150.156 19.3125C150.26 19.0208 150.344 18.7292 150.406 18.4375C150.469 18.1458 150.437 17.8438 150.312 17.5312C150.396 17.5938 150.458 17.5833 150.5 17.5C150.542 17.3958 150.573 17.2708 150.594 17.125C150.614 16.9583 150.625 16.8021 150.625 16.6562C150.625 16.4896 150.614 16.3542 150.594 16.25C150.802 15.7083 150.969 15.1562 151.094 14.5938C151.239 14.0104 151.364 13.4375 151.469 12.875C151.594 12.3125 151.719 11.7604 151.844 11.2188C151.969 10.6771 152.135 10.1771 152.344 9.71875C152.573 9.67708 152.823 9.70833 153.094 9.8125C153.385 9.89583 153.562 10.0104 153.625 10.1562C154.167 9.73958 154.646 9.23958 155.062 8.65625C155.479 8.05208 155.906 7.46875 156.344 6.90625C156.781 6.34375 157.26 5.84375 157.781 5.40625C158.323 4.96875 159 4.70833 159.812 4.625C160.229 4.9375 160.687 5.26042 161.187 5.59375C161.708 5.90625 162.135 6.32292 162.469 6.84375C162.635 6.92708 162.771 7.02083 162.875 7.125C163 7.20833 163.146 7.30208 163.312 7.40625V7.78125C163.562 8.01042 163.76 8.28125 163.906 8.59375C164.073 8.88542 164.219 9.20833 164.344 9.5625C164.469 9.89583 164.594 10.2396 164.719 10.5938C164.844 10.9271 164.989 11.25 165.156 11.5625C165.114 11.6667 165.094 11.7604 165.094 11.8438C165.094 11.9062 165.104 11.9792 165.125 12.0625C165.167 12.1458 165.198 12.2292 165.219 12.3125C165.239 12.3958 165.239 12.5104 165.219 12.6562C165.156 13.5729 164.854 14.3125 164.312 14.875C163.792 15.4375 163.156 15.9062 162.406 16.2812C161.656 16.6354 160.854 16.9375 160 17.1875C159.146 17.4375 158.375 17.7083 157.687 18C157.687 18.0833 157.719 18.125 157.781 18.125C157.864 18.125 157.896 18.1771 157.875 18.2812C158.375 18.5938 158.771 18.8438 159.062 19.0312C159.354 19.2188 159.625 19.375 159.875 19.5C160.146 19.625 160.427 19.7396 160.719 19.8438C161.031 19.9271 161.458 20.0312 162 20.1562C162.542 20.2812 162.958 20.3854 163.25 20.4688C163.562 20.5312 163.844 20.5938 164.094 20.6562C164.344 20.6979 164.594 20.7396 164.844 20.7812C165.114 20.8021 165.489 20.8333 165.969 20.875C166.156 21.0625 166.312 21.2917 166.437 21.5625C166.583 21.8125 166.677 22.0729 166.719 22.3438C166.76 22.5938 166.771 22.8438 166.75 23.0938C166.729 23.3229 166.656 23.5104 166.531 23.6562C166.552 23.7188 166.594 23.75 166.656 23.75C166.739 23.7292 166.823 23.7292 166.906 23.75C166.781 23.8333 166.677 23.9375 166.594 24.0625C166.51 24.1875 166.427 24.3125 166.344 24.4375C166.26 24.5625 166.167 24.6667 166.062 24.75C165.958 24.8542 165.812 24.9167 165.625 24.9375C164.979 25.1875 164.167 25.1979 163.187 24.9688C162.208 24.7604 160.969 24.3646 159.469 23.7812C158.719 23.4896 158.104 23.2396 157.625 23.0312C157.167 22.8021 156.76 22.5833 156.406 22.375C156.073 22.1458 155.76 21.9062 155.469 21.6562C155.198 21.4062 154.864 21.1042 154.469 20.75ZM158.937 10.0312C158.708 10.3646 158.448 10.6667 158.156 10.9375C157.885 11.2083 157.614 11.4896 157.344 11.7812C157.094 12.0521 156.864 12.3646 156.656 12.7188C156.448 13.0521 156.302 13.4479 156.219 13.9062C156.948 13.8229 157.708 13.625 158.5 13.3125C159.292 12.9792 160.042 12.6667 160.75 12.375C160.667 11.7292 160.437 11.2083 160.062 10.8125C159.708 10.4167 159.333 10.1562 158.937 10.0312ZM184.969 14.625C184.948 14.875 184.969 15.1146 185.031 15.3438C185.094 15.5729 185.167 15.8021 185.25 16.0312C185.354 16.2396 185.448 16.4583 185.531 16.6875C185.614 16.9167 185.677 17.1458 185.719 17.375C185.76 17.6667 185.76 17.9896 185.719 18.3438C185.677 18.6771 185.604 19.0104 185.5 19.3438C185.396 19.6562 185.26 19.9479 185.094 20.2188C184.927 20.4688 184.729 20.6562 184.5 20.7812C184.208 21.1562 183.854 21.4479 183.437 21.6562C183.021 21.8646 182.635 22.1146 182.281 22.4062C182.052 22.5521 181.792 22.6562 181.5 22.7188C181.229 22.7812 180.948 22.8438 180.656 22.9062C180.427 23.0312 180.156 23.1667 179.844 23.3125C179.531 23.4375 179.208 23.5625 178.875 23.6875C178.542 23.7917 178.208 23.875 177.875 23.9375C177.542 23.9792 177.25 23.9896 177 23.9688C176.375 24.1979 175.76 24.3438 175.156 24.4062C174.573 24.4896 173.885 24.4479 173.094 24.2812C172.344 24.3854 171.646 24.3542 171 24.1875C170.375 24.0208 169.812 23.7604 169.312 23.4062C168.833 23.0312 168.406 22.5938 168.031 22.0938C167.677 21.5729 167.385 21.0312 167.156 20.4688C166.989 19.2812 167.031 18.2083 167.281 17.25C167.531 16.2708 167.885 15.375 168.344 14.5625C168.823 13.7292 169.364 12.9688 169.969 12.2812C170.573 11.5729 171.156 10.8854 171.719 10.2188C171.844 10.2604 171.937 10.2604 172 10.2188C172.083 10.1562 172.156 10.0833 172.219 10C172.281 9.89583 172.344 9.80208 172.406 9.71875C172.489 9.63542 172.583 9.58333 172.687 9.5625C172.833 9.25 173.042 9.02083 173.312 8.875C173.604 8.70833 173.833 8.47917 174 8.1875C174.187 8.14583 174.344 8.08333 174.469 8C174.594 7.91667 174.708 7.82292 174.812 7.71875C174.937 7.61458 175.062 7.52083 175.187 7.4375C175.312 7.33333 175.458 7.26042 175.625 7.21875V6.875C176 6.70833 176.271 6.52083 176.437 6.3125C176.625 6.08333 176.844 5.8125 177.094 5.5C177.281 5.47917 177.427 5.46875 177.531 5.46875C177.656 5.46875 177.833 5.44792 178.062 5.40625C178.229 5.11458 178.375 4.89583 178.5 4.75C178.646 4.60417 178.854 4.44792 179.125 4.28125C179.375 4.40625 179.646 4.48958 179.937 4.53125C180.25 4.57292 180.521 4.70833 180.75 4.9375C180.771 5.14583 180.833 5.3125 180.937 5.4375C181.042 5.54167 181.156 5.64583 181.281 5.75C181.406 5.83333 181.521 5.92708 181.625 6.03125C181.75 6.13542 181.833 6.28125 181.875 6.46875C181.958 6.48958 182.01 6.47917 182.031 6.4375C182.073 6.39583 182.135 6.38542 182.219 6.40625C182.281 6.69792 182.354 6.89583 182.437 7C182.521 7.08333 182.604 7.26042 182.687 7.53125C182.583 7.73958 182.5 7.95833 182.437 8.1875C182.396 8.39583 182.271 8.55208 182.062 8.65625C182.042 8.80208 182.083 8.88542 182.187 8.90625C182.292 8.90625 182.354 8.95833 182.375 9.0625C182.396 9.25 182.364 9.38542 182.281 9.46875C182.781 10.2812 183.229 11.1458 183.625 12.0625C184.021 12.9583 184.469 13.8125 184.969 14.625ZM181.062 17.5938C181.146 17.3646 181.25 17.1771 181.375 17.0312C181.521 16.8854 181.604 16.6667 181.625 16.375C181.521 16.2083 181.458 16.0833 181.437 16C181.417 15.8958 181.406 15.7396 181.406 15.5312C180.948 14.8854 180.552 14.1979 180.219 13.4688C179.885 12.7188 179.51 12.0208 179.094 11.375C179.052 11.4583 178.979 11.5417 178.875 11.625C178.771 11.7083 178.656 11.6875 178.531 11.5625C178.489 11.7292 178.417 11.8542 178.312 11.9375C178.208 12 178.094 12.0312 177.969 12.0312C177.844 12.0104 177.708 11.9792 177.562 11.9375C177.437 11.875 177.323 11.8021 177.219 11.7188C176.614 12.1979 176.01 12.6667 175.406 13.125C174.802 13.5833 174.26 14.1146 173.781 14.7188C173.698 14.7604 173.646 14.7812 173.625 14.7812C173.604 14.7604 173.542 14.7708 173.437 14.8125C173.271 15.2083 173.062 15.5729 172.812 15.9062C172.583 16.2188 172.354 16.5417 172.125 16.875C171.896 17.2083 171.698 17.5625 171.531 17.9375C171.364 18.3125 171.271 18.75 171.25 19.25C171.604 19.5417 172.021 19.7188 172.5 19.7812C172.979 19.8438 173.469 19.8542 173.969 19.8125C174.489 19.7708 174.989 19.7083 175.469 19.625C175.969 19.5208 176.427 19.4688 176.844 19.4688C177.719 19.2604 178.469 18.9896 179.094 18.6562C179.719 18.3021 180.375 17.9479 181.062 17.5938ZM204.312 6.40625C204.333 6.55208 204.333 6.66667 204.312 6.75C204.312 6.8125 204.302 6.875 204.281 6.9375C204.281 7 204.281 7.07292 204.281 7.15625C204.281 7.21875 204.302 7.32292 204.344 7.46875C203.906 8.17708 203.396 8.66667 202.812 8.9375C202.25 9.1875 201.635 9.375 200.969 9.5C200.302 9.60417 199.614 9.71875 198.906 9.84375C198.219 9.96875 197.531 10.2396 196.844 10.6562C196.573 10.5521 196.323 10.5521 196.094 10.6562C195.885 10.7604 195.573 10.7917 195.156 10.75C195.031 10.875 194.875 10.9688 194.687 11.0312C194.5 11.0729 194.312 11.125 194.125 11.1875C194.208 11.375 194.239 11.5729 194.219 11.7812C194.219 11.9688 194.25 12.125 194.312 12.25C195.042 12.3125 195.844 12.3021 196.719 12.2188C197.614 12.1354 198.489 12.0833 199.344 12.0625C199.364 12.1667 199.354 12.2396 199.312 12.2812C199.271 12.3021 199.26 12.3542 199.281 12.4375C199.427 12.5417 199.573 12.6771 199.719 12.8438C199.864 12.9896 200.01 13.1354 200.156 13.2812C200.302 13.4271 200.448 13.5521 200.594 13.6562C200.76 13.7396 200.948 13.7708 201.156 13.75C201.239 13.9167 201.292 14.1042 201.312 14.3125C201.354 14.5 201.333 14.6979 201.25 14.9062C200.917 15.1354 200.583 15.375 200.25 15.625C199.917 15.8542 199.562 16.0625 199.187 16.25C198.833 16.4375 198.448 16.5938 198.031 16.7188C197.635 16.8229 197.187 16.8646 196.687 16.8438C196.583 16.8438 196.5 16.8438 196.437 16.8438C196.396 16.8438 196.333 16.8125 196.25 16.75C196.083 16.8542 195.844 16.8854 195.531 16.8438C195.239 16.8021 195.01 16.8333 194.844 16.9375C194.614 16.8333 194.333 16.7917 194 16.8125C193.687 16.8125 193.406 16.7708 193.156 16.6875C192.823 17.125 192.521 17.5938 192.25 18.0938C191.979 18.5938 191.739 19.125 191.531 19.6875C192.239 19.7917 192.823 19.8333 193.281 19.8125C193.76 19.7917 194.208 19.7604 194.625 19.7188C195.042 19.6562 195.469 19.6042 195.906 19.5625C196.344 19.5 196.896 19.4792 197.562 19.5C197.979 19.2708 198.469 19.125 199.031 19.0625C199.614 18.9792 200.146 18.8542 200.625 18.6875C200.792 18.75 200.937 18.8646 201.062 19.0312C201.187 19.1771 201.302 19.3229 201.406 19.4688C201.531 19.5938 201.656 19.7083 201.781 19.8125C201.906 19.9167 202.062 19.9583 202.25 19.9375C202.333 20.0208 202.385 20.125 202.406 20.25C202.448 20.3542 202.479 20.4583 202.5 20.5625C202.521 20.6667 202.552 20.7604 202.594 20.8438C202.656 20.9062 202.75 20.9271 202.875 20.9062C202.562 21.5938 202.198 22.125 201.781 22.5C201.385 22.8542 200.927 23.125 200.406 23.3125C199.885 23.5 199.302 23.6458 198.656 23.75C198.031 23.8542 197.333 23.9792 196.562 24.125C196.375 24.1667 196.219 24.1562 196.094 24.0938C195.969 24.0521 195.823 24.0312 195.656 24.0312C195.177 24.1354 194.604 24.2292 193.937 24.3125C193.271 24.3958 192.594 24.4271 191.906 24.4062C191.219 24.3854 190.562 24.2917 189.937 24.125C189.312 23.9792 188.802 23.7083 188.406 23.3125C188.239 23.1667 188.125 23 188.062 22.8125C188.021 22.6042 187.885 22.4479 187.656 22.3438C187.635 22.0729 187.594 21.7708 187.531 21.4375C187.469 21.1042 187.406 20.7604 187.344 20.4062C187.281 20.0312 187.229 19.6667 187.187 19.3125C187.167 18.9583 187.187 18.6354 187.25 18.3438C187.312 18.0312 187.437 17.75 187.625 17.5C187.833 17.25 187.906 16.9792 187.844 16.6875C187.948 16.6667 188.01 16.6146 188.031 16.5312C188.052 16.4271 188.135 16.3854 188.281 16.4062C188.406 16.0312 188.542 15.6771 188.687 15.3438C188.833 15.0104 188.979 14.6875 189.125 14.375C189.292 14.0625 189.448 13.75 189.594 13.4375C189.76 13.1042 189.917 12.7396 190.062 12.3438C189.771 12.0729 189.552 11.7812 189.406 11.4688C189.281 11.1354 189.187 10.8125 189.125 10.5C189.062 10.1667 189.01 9.83333 188.969 9.5C188.927 9.14583 188.854 8.79167 188.75 8.4375C188.958 8.125 189.208 7.875 189.5 7.6875C189.812 7.47917 190.146 7.3125 190.5 7.1875C190.854 7.0625 191.239 6.95833 191.656 6.875C192.073 6.79167 192.51 6.69792 192.969 6.59375C193.802 6.32292 194.542 6.11458 195.187 5.96875C195.854 5.82292 196.5 5.70833 197.125 5.625C197.771 5.52083 198.437 5.42708 199.125 5.34375C199.812 5.26042 200.594 5.13542 201.469 4.96875C201.656 5.15625 201.833 5.25 202 5.25C202.083 5.0625 202.177 5.01042 202.281 5.09375C202.406 5.15625 202.458 5.09375 202.437 4.90625C202.646 5.26042 202.906 5.5625 203.219 5.8125C203.552 6.04167 203.917 6.23958 204.312 6.40625ZM204.062 9.9375C204.208 9.5 204.437 9.125 204.75 8.8125C205.083 8.5 205.437 8.23958 205.812 8.03125C206.208 7.80208 206.614 7.61458 207.031 7.46875C207.448 7.32292 207.844 7.19792 208.219 7.09375C209.052 6.73958 209.937 6.40625 210.875 6.09375C211.833 5.76042 212.802 5.46875 213.781 5.21875C214.781 4.96875 215.802 4.8125 216.844 4.75C217.885 4.66667 218.979 4.79167 220.125 5.125C220.187 5.33333 220.281 5.53125 220.406 5.71875C220.531 5.90625 220.656 6.09375 220.781 6.28125C220.927 6.46875 221.052 6.65625 221.156 6.84375C221.26 7.01042 221.323 7.1875 221.344 7.375C221.552 7.5625 221.719 7.77083 221.844 8C221.969 8.20833 221.989 8.48958 221.906 8.84375C221.698 9.01042 221.489 9.16667 221.281 9.3125C221.094 9.4375 220.885 9.55208 220.656 9.65625C219.885 9.46875 219.104 9.40625 218.312 9.46875C217.521 9.53125 216.812 9.58333 216.187 9.625C216 9.4375 215.771 9.34375 215.5 9.34375C215.25 9.34375 214.979 9.38542 214.687 9.46875C214.417 9.55208 214.135 9.63542 213.844 9.71875C213.573 9.80208 213.312 9.82292 213.062 9.78125C212.854 9.94792 212.594 10.0625 212.281 10.125C211.989 10.1667 211.667 10.2083 211.312 10.25C211.292 10.3542 211.312 10.4271 211.375 10.4688C211.437 10.4896 211.448 10.5521 211.406 10.6562C211.531 10.8021 211.687 10.9062 211.875 10.9688C212.083 11.0312 212.292 11.0938 212.5 11.1562C212.729 11.2188 212.927 11.3021 213.094 11.4062C213.26 11.4896 213.375 11.6354 213.437 11.8438C213.75 11.8438 214.021 11.9167 214.25 12.0625C214.479 12.2083 214.667 12.3854 214.812 12.5938C214.958 12.8021 215.062 13.0312 215.125 13.2812C215.208 13.5104 215.25 13.7188 215.25 13.9062C215.312 14.0729 215.385 14.1458 215.469 14.125C215.552 14.1042 215.646 14.1458 215.75 14.25C215.812 14.5208 215.969 14.8021 216.219 15.0938C216.469 15.3646 216.667 15.6667 216.812 16C216.854 16.5208 216.885 16.9896 216.906 17.4062C216.927 17.8021 216.854 18.2083 216.687 18.625C216.375 19.3958 215.937 20.0833 215.375 20.6875C214.833 21.2917 214.208 21.8333 213.5 22.3125C212.812 22.7708 212.073 23.1667 211.281 23.5C210.489 23.8333 209.719 24.1146 208.969 24.3438C208.885 24.3229 208.802 24.3229 208.719 24.3438C208.635 24.3646 208.614 24.3125 208.656 24.1875C208.489 24.3333 208.302 24.4271 208.094 24.4688C207.906 24.5104 207.698 24.5208 207.469 24.5C207.239 24.5 207 24.4896 206.75 24.4688C206.521 24.4479 206.302 24.4583 206.094 24.5C205.948 24.3542 205.812 24.2083 205.687 24.0625C205.583 23.9375 205.5 23.7708 205.437 23.5625C205.333 23.5625 205.281 23.5104 205.281 23.4062C205.302 23.3021 205.271 23.25 205.187 23.25C205.312 23.0417 205.364 22.9271 205.344 22.9062C205.344 22.8646 205.312 22.8333 205.25 22.8125C205.208 22.7917 205.167 22.7708 205.125 22.75C205.083 22.7083 205.073 22.6562 205.094 22.5938C205.177 22.4271 205.208 22.2396 205.187 22.0312C205.167 21.8021 205.146 21.5729 205.125 21.3438C205.104 21.1146 205.114 20.8958 205.156 20.6875C205.219 20.4792 205.375 20.3125 205.625 20.1875C206.333 20.2708 207 20.25 207.625 20.125C208.271 19.9792 208.875 19.7812 209.437 19.5312C210 19.2812 210.531 19.0104 211.031 18.7188C211.552 18.4271 212.062 18.1667 212.562 17.9375C212.625 17.75 212.708 17.5938 212.812 17.4688C212.937 17.3438 213.062 17.2292 213.187 17.125C213.312 17.0208 213.427 16.9062 213.531 16.7812C213.635 16.6562 213.708 16.5 213.75 16.3125C213.771 16.1667 213.729 16.0833 213.625 16.0625C213.542 16.0208 213.5 15.9375 213.5 15.8125L213.156 15.7188C212.76 15.4896 212.312 15.3021 211.812 15.1562C211.312 14.9896 210.885 14.8125 210.531 14.625C210.302 14.75 210.083 14.7812 209.875 14.7188C209.687 14.6562 209.437 14.5938 209.125 14.5312C208.417 14.4896 207.729 14.4167 207.062 14.3125C206.417 14.2083 205.792 14.0208 205.187 13.75C205.146 13.6458 205.094 13.5521 205.031 13.4688C204.969 13.3854 204.854 13.3646 204.687 13.4062C204.562 13.2396 204.437 13.0833 204.312 12.9375C204.187 12.7708 204.073 12.5938 203.969 12.4062C204.01 12.1562 204.042 11.9479 204.062 11.7812C204.083 11.5938 204.021 11.4167 203.875 11.25C203.958 10.9792 204.021 10.7604 204.062 10.5938C204.104 10.4271 204.104 10.2083 204.062 9.9375Z" fill="#423E5C"/>
</svg>
